<svg width="20" height="20" viewBox="0 0 20 20" fill="none" xmlns="http://www.w3.org/2000/svg">
<path fill-rule="evenodd" clip-rule="evenodd" d="M9.99992 19.1666C15.0625 19.1666 19.1666 15.0625 19.1666 9.99992C19.1666 4.93731 15.0625 0.833252 9.99992 0.833252C4.93731 0.833252 0.833252 4.93731 0.833252 9.99992C0.833252 15.0625 4.93731 19.1666 9.99992 19.1666ZM8.10468 2.74144C5.14059 3.51323 2.88992 6.05262 2.54569 9.16658H5.87499C6.06183 6.86393 6.8325 4.6536 8.10468 2.74144ZM11.8952 2.74144C13.1673 4.6536 13.938 6.86393 14.1248 9.16658H17.4541C17.1099 6.05262 14.8592 3.51323 11.8952 2.74144ZM12.4519 9.16658C12.2426 6.90561 11.3913 4.75153 9.99992 2.95892C8.60852 4.75153 7.75724 6.90561 7.54791 9.16658H12.4519ZM7.54791 10.8333H12.4519C12.2426 13.0942 11.3913 15.2483 9.99992 17.0409C8.60852 15.2483 7.75724 13.0942 7.54791 10.8333ZM5.87499 10.8333H2.54569C2.88992 13.9472 5.14059 16.4866 8.10468 17.2584C6.8325 15.3462 6.06183 13.1359 5.87499 10.8333ZM11.8952 17.2584C13.1673 15.3462 13.938 13.1359 14.1248 10.8333H17.4541C17.1099 13.9472 14.8592 16.4866 11.8952 17.2584Z" fill="#4BA7A6"/>
</svg>
