<svg width="17" height="12" viewBox="0 0 17 12" fill="none" xmlns="http://www.w3.org/2000/svg">
<path d="M0.833333 0C0.373096 0 0 0.373096 0 0.833333C0 1.29357 0.373096 1.66667 0.833333 1.66667H0.841667C1.3019 1.66667 1.675 1.29357 1.675 0.833333C1.675 0.373096 1.3019 0 0.841667 0H0.833333Z" fill="#8C9C9C"/>
<path d="M5 0C4.53976 0 4.16667 0.373096 4.16667 0.833333C4.16667 1.29357 4.53976 1.66667 5 1.66667H15.8333C16.2936 1.66667 16.6667 1.29357 16.6667 0.833333C16.6667 0.373096 16.2936 0 15.8333 0H5Z" fill="#8C9C9C"/>
<path d="M5 5C4.53976 5 4.16667 5.3731 4.16667 5.83333C4.16667 6.29357 4.53976 6.66667 5 6.66667H15.8333C16.2936 6.66667 16.6667 6.29357 16.6667 5.83333C16.6667 5.3731 16.2936 5 15.8333 5H5Z" fill="#8C9C9C"/>
<path d="M4.16667 10.8333C4.16667 10.3731 4.53976 10 5 10H15.8333C16.2936 10 16.6667 10.3731 16.6667 10.8333C16.6667 11.2936 16.2936 11.6667 15.8333 11.6667H5C4.53976 11.6667 4.16667 11.2936 4.16667 10.8333Z" fill="#8C9C9C"/>
<path d="M0 5.83333C0 5.3731 0.373096 5 0.833333 5H0.841667C1.3019 5 1.675 5.3731 1.675 5.83333C1.675 6.29357 1.3019 6.66667 0.841667 6.66667H0.833333C0.373096 6.66667 0 6.29357 0 5.83333Z" fill="#8C9C9C"/>
<path d="M0.833333 10C0.373096 10 0 10.3731 0 10.8333C0 11.2936 0.373096 11.6667 0.833333 11.6667H0.841667C1.3019 11.6667 1.675 11.2936 1.675 10.8333C1.675 10.3731 1.3019 10 0.841667 10H0.833333Z" fill="#8C9C9C"/>
</svg>
