<svg width="20" height="20" viewBox="0 0 20 20" fill="none" xmlns="http://www.w3.org/2000/svg">
<path fill-rule="evenodd" clip-rule="evenodd" d="M7.08333 1.6665C4.78215 1.6665 2.91667 3.53198 2.91667 5.83317C2.91667 8.13436 4.78215 9.99984 7.08333 9.99984C9.38452 9.99984 11.25 8.13436 11.25 5.83317C11.25 3.53198 9.38452 1.6665 7.08333 1.6665ZM4.58333 5.83317C4.58333 4.45246 5.70262 3.33317 7.08333 3.33317C8.46405 3.33317 9.58333 4.45246 9.58333 5.83317C9.58333 7.21388 8.46405 8.33317 7.08333 8.33317C5.70262 8.33317 4.58333 7.21388 4.58333 5.83317Z" fill="#8C9C9C"/>
<path d="M4.16667 11.6665C3.0616 11.6665 2.00179 12.1055 1.22039 12.8869C0.438987 13.6683 0 14.7281 0 15.8332V17.4998C0 17.9601 0.373096 18.3332 0.833333 18.3332C1.29357 18.3332 1.66667 17.9601 1.66667 17.4998V15.8332C1.66667 15.1701 1.93006 14.5342 2.3989 14.0654C2.86774 13.5966 3.50363 13.3332 4.16667 13.3332H10C10.663 13.3332 11.2989 13.5966 11.7678 14.0654C12.2366 14.5342 12.5 15.1701 12.5 15.8332V17.4998C12.5 17.9601 12.8731 18.3332 13.3333 18.3332C13.7936 18.3332 14.1667 17.9601 14.1667 17.4998V15.8332C14.1667 14.7281 13.7277 13.6683 12.9463 12.8869C12.1649 12.1055 11.1051 11.6665 10 11.6665H4.16667Z" fill="#8C9C9C"/>
<path d="M16.6667 5.83317C17.1269 5.83317 17.5 6.20627 17.5 6.6665V8.33317H19.1667C19.6269 8.33317 20 8.70627 20 9.1665C20 9.62674 19.6269 9.99984 19.1667 9.99984H17.5V11.6665C17.5 12.1267 17.1269 12.4998 16.6667 12.4998C16.2064 12.4998 15.8333 12.1267 15.8333 11.6665V9.99984H14.1667C13.7064 9.99984 13.3333 9.62674 13.3333 9.1665C13.3333 8.70627 13.7064 8.33317 14.1667 8.33317H15.8333V6.6665C15.8333 6.20627 16.2064 5.83317 16.6667 5.83317Z" fill="#8C9C9C"/>
</svg>
